<svg width="30" height="30" viewBox="0 0 30 30" fill="none" xmlns="http://www.w3.org/2000/svg">
<path d="M5.53313 25.5009L3.42656 1.875H26.5734L24.4641 25.4972L14.9859 28.125L5.53313 25.5009Z" fill="#E44F26"/>
<path d="M15 26.1169L22.6594 23.9934L24.4612 3.80719H15V26.1169Z" fill="#F1662A"/>
<path d="M15 12.5691H11.1656L10.9013 9.60187H15V6.70406H14.9897H7.73438L7.80375 7.48218L8.51531 15.4669H15V12.5691Z" fill="#EBEBEB"/>
<path d="M15 20.0944L14.9869 20.0981L11.76 19.2272L11.5538 16.9162H9.98531H8.64469L9.05063 21.465L14.9869 23.1131L15 23.1094V20.0944Z" fill="#EBEBEB"/>
<path d="M14.9897 12.5691V15.4669H18.5578L18.2222 19.2253L14.9897 20.0972V23.1122L20.9306 21.465L20.9738 20.9756L21.6544 13.3472L21.7256 12.5691H20.9447H14.9897Z" fill="white"/>
<path d="M14.9897 6.70406V8.50406V9.59531V9.60187H21.9797H21.9891L22.0472 8.95124L22.1794 7.48218L22.2488 6.70406H14.9897Z" fill="white"/>
</svg>
